<svg xmlns="http://www.w3.org/2000/svg" viewBox="0 0 64 64" fill="none">
  <!-- Outer seconds ticks -->
  <g stroke-linecap="round">
    <line x1="32" y1="2.4" x2="32" y2="5.2" stroke="#67e8f9" stroke-width="1.2"/>
    <line x1="46.5" y1="6.9" x2="45.2" y2="9.2" stroke="#a5f3fc" stroke-width="0.7" opacity="0.7"/>
    <line x1="57.1" y1="17.5" x2="54.8" y2="18.8" stroke="#67e8f9" stroke-width="1.1"/>
    <line x1="61.6" y1="32" x2="58.8" y2="32" stroke="#a5f3fc" stroke-width="0.7" opacity="0.7"/>
    <line x1="57.1" y1="46.5" x2="54.8" y2="45.2" stroke="#67e8f9" stroke-width="1.1"/>
    <line x1="46.5" y1="57.1" x2="45.2" y2="54.8" stroke="#a5f3fc" stroke-width="0.7" opacity="0.7"/>
    <line x1="32" y1="61.6" x2="32" y2="58.8" stroke="#67e8f9" stroke-width="1.2"/>
    <line x1="17.5" y1="57.1" x2="18.8" y2="54.8" stroke="#a5f3fc" stroke-width="0.7" opacity="0.7"/>
    <line x1="6.9" y1="46.5" x2="9.2" y2="45.2" stroke="#67e8f9" stroke-width="1.1"/>
    <line x1="2.4" y1="32" x2="5.2" y2="32" stroke="#a5f3fc" stroke-width="0.7" opacity="0.7"/>
    <line x1="6.9" y1="17.5" x2="9.2" y2="18.8" stroke="#67e8f9" stroke-width="1.1"/>
    <line x1="17.5" y1="6.9" x2="18.8" y2="9.2" stroke="#a5f3fc" stroke-width="0.7" opacity="0.7"/>
  </g>
  <!-- Arc bars -->
  <rect x="14.2" y="22" width="4.4" height="11" rx="2.2" fill="#22d3ee" transform="rotate(-20 16.4 27.5)"/>
  <rect x="19.5" y="14.5" width="4.4" height="11" rx="2.2" fill="#2dd4bf" transform="rotate(10 21.7 20)"/>
  <rect x="27.5" y="10.5" width="4.4" height="11" rx="2.2" fill="#38bdf8" transform="rotate(40 29.7 16)"/>
  <rect x="36" y="11" width="4.4" height="11" rx="2.2" fill="#60a5fa" transform="rotate(70 38.2 16.5)"/>
  <rect x="43" y="16" width="4.4" height="11" rx="2.2" fill="#818cf8" transform="rotate(100 45.2 21.5)"/>
  <rect x="46.5" y="24" width="4.4" height="11" rx="2.2" fill="#8b5cf6" transform="rotate(130 48.7 29.5)"/>
  <rect x="45" y="33" width="4.4" height="11" rx="2.2" fill="#a855f7" transform="rotate(160 47.2 38.5)"/>
  <!-- Hands -->
  <line x1="32" y1="32" x2="32" y2="18" stroke="#1d4ed8" stroke-width="2.4" stroke-linecap="round"/>
  <line x1="32" y1="32" x2="42" y2="38" stroke="#2563eb" stroke-width="2" stroke-linecap="round"/>
  <circle cx="32" cy="32" r="3.2" fill="#1e3a8a" stroke="#67e8f9" stroke-width="1.2"/>
  <circle cx="32" cy="32" r="1.2" fill="#e0f2fe"/>
</svg>
